<svg width="24" height="24" viewBox="0 0 24 24" fill="none" xmlns="http://www.w3.org/2000/svg">
<g id="Frame 5">
<path id="Vector" d="M22.529 24L13.7612 15.2319C13.0632 15.8082 12.2605 16.2592 11.3532 16.5849C10.4458 16.9106 9.50709 17.0735 8.53712 17.0735C6.15116 17.0735 4.13188 16.2474 2.47927 14.5953C0.826669 12.9432 0.000366211 10.9243 0.000366211 8.53885C0.000366211 6.15359 0.826436 4.13407 2.47858 2.4803C4.13072 0.826768 6.14953 0 8.53502 0C10.9203 0 12.9398 0.826302 14.5936 2.47891C16.2471 4.13151 17.0739 6.15079 17.0739 8.53675C17.0739 9.53371 16.9066 10.4859 16.572 11.3933C16.2372 12.3007 15.7906 13.0899 15.2322 13.7609L24 22.5286L22.529 24ZM8.53712 14.9799C10.3358 14.9799 11.8593 14.3557 13.1076 13.1072C14.356 11.8589 14.9803 10.3355 14.9803 8.53675C14.9803 6.73804 14.356 5.21456 13.1076 3.96632C11.8593 2.71785 10.3358 2.09362 8.53712 2.09362C6.7384 2.09362 5.21492 2.71785 3.96669 3.96632C2.71822 5.21456 2.09398 6.73804 2.09398 8.53675C2.09398 10.3355 2.71822 11.8589 3.96669 13.1072C5.21492 14.3557 6.7384 14.9799 8.53712 14.9799Z" fill="#9C9A97"/>
</g>
</svg>
